<?xml version="1.0" encoding="UTF-8"?>
<svg xmlns="http://www.w3.org/2000/svg" width="46" height="46" viewBox="0 0 46 46" aria-hidden="true">
  <defs>
    <path id="a" d="M44.5 20.2c0-1.3-.1-2.6-.4-3.8H23v7.2h11.9c-.5 2.6-2 4.8-4.2 6.3v5.2h6.8c4-3.7 6.3-9.2 6.3-15z"/>
  </defs>
  <g fill="none" fill-rule="evenodd">
    <path fill="#FBBC05" d="M23 44c6 0 11-2 14.7-5.3l-6.8-5.2c-2 1.4-4.6 2.2-7.9 2.2-6.1 0-11.3-4.1-13.2-9.7H2.9v6.1C6.6 38.7 14.2 44 23 44z"/>
    <path fill="#EA4335" d="M9.8 26.2c-.5-1.4-.8-2.9-.8-4.4s.3-3 .8-4.4V11.3H2.9A22 22 0 0 0 0 21.8c0 3.6.9 7 2.9 10.5l6.9-6.1z"/>
    <path fill="#34A853" d="M23 8.6c3.3 0 6.2 1.1 8.5 3.3l6.4-6.4C34 2 29 0 23 0 14.2 0 6.6 5.3 2.9 11.3l6.9 6.1C11.7 12.7 16.9 8.6 23 8.6z"/>
    <path fill="#4285F4" d="M44.5 20.2c0-1.3-.1-2.6-.4-3.8H23v7.2h11.9c-.9 4.3-4.6 9.7-13.2 9.7-3.3 0-5.9-.8-7.9-2.2l-6.9 6.1C11.7 41.7 17 44 23 44c11.9 0 21.7-8.6 21.7-23.8 0-1.5-.2-3-.2-4z"/>
  </g>
</svg>
