<svg width="512" height="512" viewBox="0 0 512 512" fill="none" xmlns="http://www.w3.org/2000/svg">
<rect width="512" height="512" rx="64" fill="#1f2937"/>
<rect x="128" y="96" width="256" height="320" rx="16" fill="white"/>
<rect x="128" y="96" width="256" height="320" rx="16" stroke="#e5e7eb" stroke-width="4"/>
<rect x="160" y="144" width="192" height="8" fill="#374151"/>
<rect x="160" y="168" width="144" height="8" fill="#6b7280"/>
<rect x="160" y="192" width="168" height="8" fill="#6b7280"/>
<rect x="160" y="216" width="120" height="8" fill="#6b7280"/>
<rect x="160" y="240" width="156" height="8" fill="#6b7280"/>
<rect x="160" y="264" width="132" height="8" fill="#6b7280"/>
<rect x="160" y="288" width="180" height="8" fill="#6b7280"/>
<rect x="160" y="312" width="96" height="8" fill="#6b7280"/>
<rect x="160" y="336" width="144" height="8" fill="#6b7280"/>
<rect x="160" y="360" width="168" height="8" fill="#6b7280"/>
<circle cx="256" cy="256" r="32" fill="#3b82f6" fill-opacity="0.1"/>
<path d="M240 256L252 268L272 232" stroke="#3b82f6" stroke-width="4" stroke-linecap="round" stroke-linejoin="round"/>
</svg>